Coordinates
version=1
nRows=35
nColumns=18
inDegrees=yes

Units are S.I. units (second, meters, Newtons, ...)
If the header above contains a line with 'inDegrees', this indicates whether rotational values are in degrees (yes) or radians (no).

endheader
time	ground_thorax_rot_x	ground_thorax_rot_y	ground_thorax_rot_z	ground_thorax_tx	ground_thorax_ty	ground_thorax_tz	clav_prot	clav_elev	scapula_abduction	scapula_elevation	scapula_upward_rot	scapula_winging	plane_elv	shoulder_elv	axial_rot	elbow_flexion	pro_sup
      3.38000000	     -3.18534761	     -1.85761929	     -6.23774648	     -0.10299178	      0.01723033	      0.04358725	    -29.47122491	    -16.81706647	    -20.76159521	    -14.60883206	     17.58272738	     34.86655138	     24.23172335	     61.98347281	    -36.52563698	     30.16024404	     63.92270238
      3.40000000	     -3.07077072	     -2.06599206	     -6.50449548	     -0.10255080	      0.01619452	      0.04409414	    -29.17581375	    -16.97262088	    -20.78226998	    -14.52382091	     16.71800357	     35.05164968	     23.48964373	     60.79537337	    -34.59405080	     29.94838123	     63.92270238
      3.42000000	     -2.96516589	     -2.25953431	     -6.78297280	     -0.10193312	      0.01518960	      0.04460294	    -28.86422548	    -17.12965661	    -20.83861072	    -14.41434768	     15.74609792	     35.25245382	     22.69913684	     59.74628764	    -32.64627821	     29.67070482	     63.92270238
      3.44000000	     -2.87695617	     -2.44890715	     -7.06915288	     -0.10117867	      0.01419826	      0.04513623	    -28.49449320	    -17.30986270	    -20.93873010	    -14.26268740	     14.52801534	     35.49711376	     21.84405938	     58.98925068	    -30.50578709	     29.29635208	     63.92270238
      3.46000000	     -2.72247701	     -2.53315451	     -7.41825770	     -0.10025604	      0.01310394	      0.04564302	    -28.30452806	    -17.35881584	    -20.94107143	    -14.17513719	     14.00963119	     35.57755269	     21.00900666	     57.69412633	    -29.06491857	     29.00555630	     63.92270238
      3.48000000	     -2.61864895	     -2.67261070	     -7.71275573	     -0.09926255	      0.01228479	      0.04614064	    -27.94612553	    -17.56532440	    -20.96063251	    -14.06270316	     12.90895246	     35.81347599	     19.92925126	     56.95169466	    -26.58291880	     28.57882278	     63.92270238
      3.50000000	     -2.44775142	     -2.70379705	     -8.06345494	     -0.09815760	      0.01133612	      0.04659138	    -27.71262236	    -17.62192702	    -20.93715221	    -13.95684379	     12.30615694	     35.90137874	     18.89349476	     55.87353766	    -24.79364671	     28.19978654	     63.92270238
      3.52000000	     -2.30543162	     -2.75752308	     -8.40711747	     -0.09694334	      0.01045717	      0.04714281	    -27.48842811	    -17.71362306	    -20.91090169	    -13.87504907	     11.70022173	     36.01045253	     17.83694170	     54.81330366	    -22.93448859	     27.73595156	     63.92270238
      3.54000000	     -2.14915489	     -2.79573618	     -8.72840265	     -0.09570293	      0.00963867	      0.04770542	    -27.23340861	    -17.76877402	    -20.90020239	    -13.74516331	     11.01150275	     36.10611015	     16.73583666	     53.87941594	    -20.93653359	     27.27662317	     63.92270238
      3.56000000	     -2.01495002	     -2.83123488	     -9.06396556	     -0.09439131	      0.00882806	      0.04832786	    -27.01591807	    -17.82062528	    -20.88650323	    -13.63645393	     10.42344133	     36.18942225	     15.63677113	     52.87462206	    -19.03848984	     26.80002621	     63.92270238
      3.58000000	     -1.88981729	     -2.86320920	     -9.41481872	     -0.09302555	      0.00802158	      0.04898871	    -26.83863131	    -17.85518828	    -20.83634030	    -13.55765984	     10.01527577	     36.23957953	     14.52046193	     51.72945015	    -17.25138299	     26.34440117	     63.92270238
      3.60000000	     -1.74196245	     -2.90305261	     -9.67055122	     -0.09166131	      0.00738271	      0.04969591	    -26.61683262	    -17.84366938	    -20.86953000	    -13.38831880	      9.37570014	     36.29561581	     13.37197694	     50.78195246	    -15.26138957	     25.87351082	     63.92270238
      3.62000000	     -1.60710353	     -2.94207723	     -9.97086124	     -0.09024921	      0.00668385	      0.05044151	    -26.47086498	    -17.80410549	    -20.83995636	    -13.27914593	      9.06915704	     36.29375412	     12.24377047	     49.55312876	    -13.60905550	     25.40595579	     63.92270238
      3.64000000	     -1.52990995	     -3.00211630	    -10.28270824	     -0.08877803	      0.00597692	      0.05125780	    -26.35517498	    -17.78792926	    -20.81966078	    -13.19902557	      8.80732459	     36.30380789	     11.10545388	     48.25071580	    -12.17220450	     24.94662263	     63.92270238
      3.66000000	     -1.41786177	     -3.04802172	    -10.51648332	     -0.08733294	      0.00541152	      0.05202186	    -26.21349119	    -17.71411179	    -20.81686982	    -13.06123171	      8.48896766	     36.28688600	      9.87053457	     47.00410892	    -10.36684501	     24.53065327	     63.92270238
      3.68000000	     -1.31842548	     -3.12355617	    -10.74210282	     -0.08582925	      0.00486596	      0.05288465	    -26.10115573	    -17.64068466	    -20.84215594	    -12.93126245	      8.19726184	     36.27308766	      8.63575599	     45.72539289	     -8.73603804	     24.09746230	     63.92270238
      3.70000000	     -1.26881141	     -3.22662791	    -11.09184136	     -0.08425014	      0.00377162	      0.05388368	    -25.95863951	    -17.34462457	    -20.99452578	    -12.60146762	      7.76768039	     36.16212527	      7.91223627	     44.64577027	     -8.40485708	     23.59624706	     63.92270238
      3.72000000	     -1.14500208	     -3.29502902	    -11.17887383	     -0.08262681	      0.00378845	      0.05462020	    -25.93590455	    -17.39129483	    -20.85536744	    -12.67163493	      7.92255728	     36.15097640	      6.06914710	     42.85889817	     -5.95111608	     23.25326509	     63.92270238
      3.74000000	     -1.08604771	     -3.40083185	    -11.37372916	     -0.08090919	      0.00328082	      0.05551042	    -25.86578942	    -17.25208306	    -20.88574132	    -12.53182647	      7.78622222	     36.08648446	      4.70962807	     41.41864820	     -4.62078536	     22.83367254	     63.92270238
      3.76000000	     -1.02883655	     -3.54240058	    -11.67015774	     -0.07908958	      0.00236528	      0.05653376	    -25.75374553	    -16.93557458	    -21.05844574	    -12.20061125	      7.41210003	     35.96742578	      3.83737123	     40.32767686	     -4.34557384	     22.23939663	     63.92270238
      3.78000000	     -0.92794964	     -3.61171275	    -11.79117546	     -0.07720653	      0.00224120	      0.05728505	    -25.75575622	    -16.87838278	    -20.90396595	    -12.23979618	      7.74779972	     35.87535770	      1.85381792	     38.44358040	     -2.42400519	     21.92409982	     63.92270238
      3.80000000	     -0.84256179	     -3.70929111	    -11.97547429	     -0.07523378	      0.00179984	      0.05813596	    -25.71256241	    -16.68869764	    -20.92546555	    -12.09533812	      7.73986854	     35.77073661	      0.28475590	     36.99372854	     -1.38924786	     21.37107975	     63.92270238
      3.82000000	     -0.75618508	     -3.81292174	    -12.15652629	     -0.07316336	      0.00130682	      0.05900954	    -25.65612435	    -16.45020389	    -20.94045710	    -11.91660128	      7.74354184	     35.63791763	     -1.27763164	     35.57873457	     -0.41498513	     20.82602538	     63.92270238
      3.84000000	     -0.65464702	     -3.91566563	    -12.36628246	     -0.07100169	      0.00084004	      0.05987145	    -25.60672927	    -16.21117584	    -20.93993989	    -11.74984171	      7.79500691	     35.49885055	     -2.90046816	     34.20398644	      0.40947091	     20.22217003	     63.92270238
      3.86000000	     -0.56524695	     -4.04449996	    -12.64422540	     -0.06875219	      0.00009325	      0.06084825	    -25.52262620	    -15.87368356	    -21.10250260	    -11.42919852	      7.52398939	     35.36852198	     -3.99161138	     33.25717330	      0.47676049	     19.37679049	     63.92270238
      3.88000000	     -0.44356618	     -4.12766212	    -12.80233913	     -0.06642768	     -0.00013078	      0.06155226	    -25.50204310	    -15.69372560	    -20.89747722	    -11.40918500	      7.98539938	     35.18767494	     -6.27013520	     31.59063139	      1.70506358	     18.89192738	     63.92270238
      3.90000000	     -0.34924617	     -4.25619436	    -13.09099249	     -0.06407339	     -0.00082671	      0.06249494	    -25.42681234	    -15.36310946	    -21.05888418	    -11.09844634	      7.73206770	     35.06492204	     -7.36394228	     30.78856388	      1.64918639	     17.96075204	     63.92270238
      3.92000000	     -0.24342643	     -4.36016255	    -13.28740548	     -0.06167386	     -0.00111127	      0.06319231	    -25.37705915	    -15.17128483	    -20.80473397	    -11.07256834	      8.20897829	     34.86935422	     -9.69125207	     29.28832723	      2.48052367	     17.44733469	     63.92270238
      3.94000000	     -0.15355363	     -4.48103689	    -13.53867194	     -0.05928844	     -0.00156857	      0.06399566	    -25.31890651	    -14.92696868	    -20.77259113	    -10.91033687	      8.29218319	     34.72695617	    -11.37536357	     28.29631111	      2.71815739	     16.69239892	     63.92270238
      3.96000000	     -0.07755134	     -4.62316833	    -13.85071749	     -0.05689739	     -0.00224862	      0.06487005	    -25.24862574	    -14.59695800	    -20.94169020	    -10.59970956	      8.03480229	     34.61376107	    -12.28770787	     27.74245097	      2.56813910	     15.74620327	     63.92270238
      3.98000000	     -0.00588630	     -4.74926242	    -14.07685643	     -0.05461029	     -0.00249246	      0.06547543	    -25.17276558	    -14.43516208	    -20.63521058	    -10.59516393	      8.50930298	     34.42692996	    -14.64342686	     26.54172237	      2.94235067	     15.23458150	     63.92270238
      4.00000000	      0.03133147	     -4.88812109	    -14.38177857	     -0.05236479	     -0.00313416	      0.06624663	    -25.11303176	    -14.12972319	    -20.80307598	    -10.30613090	      8.26308159	     34.32940015	    -15.44107253	     26.12165550	      2.80355947	     14.35685594	     63.92270238
      4.02000000	      0.09069529	     -5.04832527	    -14.59119541	     -0.05019867	     -0.00322867	      0.06680049	    -25.04130000	    -14.02755948	    -20.50148855	    -10.33529557	      8.69369764	     34.17885587	    -17.81250810	     25.14285120	      3.27773189	     13.90101870	     63.92270238
      4.04000000	      0.10955428	     -5.23085301	    -14.81678590	     -0.04811570	     -0.00350409	      0.06746533	    -25.00402282	    -13.85728155	    -20.48373023	    -10.22237939	      8.74866648	     34.08562994	    -19.26572677	     24.57164888	      3.46063625	     13.28118396	     63.92270238
      4.06000000	      0.11800357	     -5.34602648	    -15.14477240	     -0.04622510	     -0.00403709	      0.06797583	    -24.94851408	    -13.61857987	    -20.59321841	     -9.99967915	      8.57022303	     34.00787629	    -19.93734554	     24.32659289	      3.37115756	     12.58548450	     63.92270238
